<svg xmlns="http://www.w3.org/2000/svg" viewBox="0 0 800 800" width="800" height="800"><circle cx="400" cy="400" r="386" fill="#161D3D"/><circle cx="400" cy="400" r="378" fill="none" stroke="#F2A24A" stroke-width="12"/><circle cx="400" cy="400" r="296" fill="#222B55"/><circle cx="400" cy="400" r="296" fill="none" stroke="#B9E6CD" stroke-width="4"/><circle cx="310" cy="215" r="3.0" fill="#E8E2D4" opacity="0.85"/><circle cx="505" cy="190" r="2.3" fill="#E8E2D4" opacity="0.85"/><circle cx="552" cy="300" r="2.8" fill="#E8E2D4" opacity="0.85"/><circle cx="255" cy="320" r="2.1" fill="#E8E2D4" opacity="0.85"/><circle cx="452" cy="252" r="2.0" fill="#E8E2D4" opacity="0.85"/><circle cx="536" cy="392" r="2.2" fill="#E8E2D4" opacity="0.85"/><path d="M478.00 199.50 L479.68 206.32 L486.50 208.00 L479.68 209.68 L478.00 216.50 L476.32 209.68 L469.50 208.00 L476.32 206.32 Z" fill="#B9E6CD"/><g transform="translate(272.5 300.5) scale(2.55)"><path d="M28 71 L28 37 L50 59 L72 37 L72 71" fill="none" stroke="#E8E2D4" stroke-width="8.5" stroke-linecap="round" stroke-linejoin="round"/><path d="M50.00 22.50 L51.48 28.52 L57.50 30.00 L51.48 31.48 L50.00 37.50 L48.52 31.48 L42.50 30.00 L48.52 28.52 Z" fill="#F2A24A"/></g><g transform="translate(274.0 596)"><path transform="translate(0.00 0.00)" d="M20.982 -18.07V0.0H18.018V-12.376L12.506 0.0H10.452L4.914 -12.376V0.0H1.95V-18.07H5.148L11.491999999999999 -3.9L17.81 -18.07Z" fill="#F2A24A"/><path transform="translate(28.65 0.00)" d="M12.844 -3.6919999999999997H5.278L3.9779999999999998 0.0H0.884L7.358 -18.096H10.79L17.264 0.0H14.144ZM12.011999999999999 -6.109999999999999 9.074 -14.508 6.109999999999999 -6.109999999999999Z" fill="#F2A24A"/><path transform="translate(52.49 0.00)" d="M17.445999999999998 -8.969999999999999Q17.445999999999998 -6.2139999999999995 16.262999999999998 -4.186Q15.08 -2.158 12.908999999999999 -1.079Q10.738 0.0 7.851999999999999 0.0H1.95V-18.07H7.851999999999999Q10.738 -18.07 12.908999999999999 -16.965Q15.08 -15.86 16.262999999999998 -13.793Q17.445999999999998 -11.725999999999999 17.445999999999998 -8.969999999999999ZM14.404 -8.969999999999999Q14.404 -12.116 12.713999999999999 -13.884Q11.024 -15.652 7.851999999999999 -15.652H4.914V-2.4179999999999997H7.851999999999999Q11.024 -2.4179999999999997 12.713999999999999 -4.1339999999999995Q14.404 -5.85 14.404 -8.969999999999999Z" fill="#F2A24A"/><path transform="translate(76.65 0.00)" d="M4.914 -15.677999999999999V-10.373999999999999H11.154V-7.9559999999999995H4.914V-2.4179999999999997H11.934V0.0H1.95V-18.096H11.934V-15.677999999999999Z" fill="#F2A24A"/><path transform="translate(108.47 0.00)" d="M15.106 -4.862Q15.106 -3.484 14.391 -2.379Q13.676 -1.274 12.324 -0.637Q10.972 0.0 9.177999999999999 0.0H1.95V-18.07H8.84Q10.686 -18.07 12.012 -17.445999999999998Q13.338 -16.822 14.014 -15.768999999999998Q14.69 -14.716 14.69 -13.415999999999999Q14.69 -11.856 13.858 -10.815999999999999Q13.026 -9.776 11.622 -9.282Q13.078 -9.022 14.091999999999999 -7.747999999999999Q15.106 -6.473999999999999 15.106 -4.862ZM4.914 -10.478H8.58Q10.036 -10.478 10.855 -11.141Q11.674 -11.804 11.674 -13.052Q11.674 -14.274 10.855 -14.963Q10.036 -15.652 8.58 -15.652H4.914ZM12.142 -5.1739999999999995Q12.142 -6.5 11.232 -7.28Q10.322 -8.06 8.814 -8.06H4.914V-2.4179999999999997H8.918Q10.426 -2.4179999999999997 11.283999999999999 -3.146Q12.142 -3.8739999999999997 12.142 -5.1739999999999995Z" fill="#F2A24A"/><path transform="translate(130.57 0.00)" d="M15.34 -18.07 9.36 -6.552V0.0H6.396V-6.552L0.38999999999999996 -18.07H3.6919999999999997L7.877999999999999 -9.203999999999999L12.064 -18.07Z" fill="#F2A24A"/><path transform="translate(164.50 0.00)" d="M20.982 -18.07V0.0H18.018V-12.376L12.506 0.0H10.452L4.914 -12.376V0.0H1.95V-18.07H5.148L11.491999999999999 -3.9L17.81 -18.07Z" fill="#F2A24A"/><path transform="translate(193.15 0.00)" d="M12.844 -3.6919999999999997H5.278L3.9779999999999998 0.0H0.884L7.358 -18.096H10.79L17.264 0.0H14.144ZM12.011999999999999 -6.109999999999999 9.074 -14.508 6.109999999999999 -6.109999999999999Z" fill="#F2A24A"/><path transform="translate(217.00 0.00)" d="M13.623999999999999 -18.07V-15.652H8.814V0.0H5.85V-15.652H1.014V-18.07Z" fill="#F2A24A"/><path transform="translate(237.38 0.00)" d="M13.623999999999999 -18.07V-15.652H8.814V0.0H5.85V-15.652H1.014V-18.07Z" fill="#F2A24A"/></g><g transform="translate(400 400) rotate(-47.002) translate(-22.95 -322.00)"><path d="M42.85 -35.1V0.0H34.300000000000004V-21.05L26.450000000000003 0.0H19.55L11.65 -21.1V0.0H3.1V-35.1H13.200000000000001L23.05 -10.8L32.800000000000004 -35.1Z" fill="#E8E2D4"/></g><g transform="translate(400 400) rotate(-39.622) translate(-13.52 -322.00)"><path d="M11.65 -28.25V-21.150000000000002H23.1V-14.55H11.65V-6.8500000000000005H24.6V0.0H3.1V-35.1H24.6V-28.25Z" fill="#E8E2D4"/></g><g transform="translate(400 400) rotate(-33.092) translate(-18.18 -322.00)"><path d="M34.65 -17.55Q34.65 -12.4 32.375 -8.4Q30.1 -4.4 25.925 -2.2Q21.75 0.0 16.25 0.0H3.1V-35.1H16.25Q21.8 -35.1 25.950000000000003 -32.900000000000006Q30.1 -30.700000000000003 32.375 -26.725Q34.65 -22.75 34.65 -17.55ZM25.950000000000003 -17.55Q25.950000000000003 -22.400000000000002 23.25 -25.1Q20.55 -27.8 15.700000000000001 -27.8H11.65V-7.4H15.700000000000001Q20.55 -7.4 23.25 -10.05Q25.950000000000003 -12.700000000000001 25.950000000000003 -17.55Z" fill="#E8E2D4"/></g><g transform="translate(400 400) rotate(-26.562) translate(-13.52 -322.00)"><path d="M11.65 -28.25V-21.150000000000002H23.1V-14.55H11.65V-6.8500000000000005H24.6V0.0H3.1V-35.1H24.6V-28.25Z" fill="#E8E2D4"/></g><g transform="translate(400 400) rotate(-20.018) translate(-18.25 -322.00)"><path d="M36.050000000000004 -35.1 23.6 0.0H12.9L0.45 -35.1H9.55L18.25 -8.6L27.0 -35.1Z" fill="#E8E2D4"/></g><g transform="translate(400 400) rotate(-12.602) translate(-18.43 -322.00)"><path d="M24.950000000000003 -6.2H11.850000000000001L9.75 0.0H0.8L13.5 -35.1H23.400000000000002L36.1 0.0H27.05ZM22.75 -12.8 18.400000000000002 -25.650000000000002 14.100000000000001 -12.8Z" fill="#E8E2D4"/></g><g transform="translate(400 400) rotate(-5.045) translate(-19.05 -322.00)"><path d="M19.3 -35.5Q25.55 -35.5 30.0 -32.2Q34.45 -28.900000000000002 35.95 -23.200000000000003H26.55Q25.5 -25.400000000000002 23.575000000000003 -26.550000000000004Q21.650000000000002 -27.700000000000003 19.200000000000003 -27.700000000000003Q15.25 -27.700000000000003 12.8 -24.950000000000003Q10.350000000000001 -22.200000000000003 10.350000000000001 -17.6Q10.350000000000001 -13.0 12.8 -10.25Q15.25 -7.5 19.200000000000003 -7.5Q21.650000000000002 -7.5 23.575000000000003 -8.65Q25.5 -9.8 26.55 -12.0H35.95Q34.45 -6.300000000000001 30.0 -3.0250000000000004Q25.55 0.25 19.3 0.25Q14.200000000000001 0.25 10.175 -2.025Q6.15 -4.3 3.9000000000000004 -8.35Q1.6500000000000001 -12.4 1.6500000000000001 -17.6Q1.6500000000000001 -22.8 3.9000000000000004 -26.875Q6.15 -30.950000000000003 10.175 -33.225Q14.200000000000001 -35.5 19.3 -35.5Z" fill="#E8E2D4"/></g><g transform="translate(400 400) rotate(4.444) translate(-13.68 -322.00)"><path d="M25.950000000000003 -35.1V-28.25H11.65V-20.85H22.35V-14.200000000000001H11.65V0.0H3.1V-35.1Z" fill="#E8E2D4"/></g><g transform="translate(400 400) rotate(10.667) translate(-16.30 -322.00)"><path d="M21.0 0.0 13.700000000000001 -13.25H11.65V0.0H3.1V-35.1H17.45Q21.6 -35.1 24.525000000000002 -33.650000000000006Q27.450000000000003 -32.2 28.900000000000002 -29.675000000000004Q30.35 -27.150000000000002 30.35 -24.05Q30.35 -20.55 28.375 -17.8Q26.400000000000002 -15.05 22.55 -13.9L30.650000000000002 0.0ZM11.65 -19.3H16.95Q19.3 -19.3 20.475 -20.450000000000003Q21.650000000000002 -21.6 21.650000000000002 -23.700000000000003Q21.650000000000002 -25.700000000000003 20.475 -26.85Q19.3 -28.0 16.95 -28.0H11.65Z" fill="#E8E2D4"/></g><g transform="translate(400 400) rotate(17.954) translate(-19.65 -322.00)"><path d="M1.6500000000000001 -17.650000000000002Q1.6500000000000001 -22.8 4.075 -26.9Q6.5 -31.0 10.625 -33.3Q14.75 -35.6 19.700000000000003 -35.6Q24.650000000000002 -35.6 28.775 -33.3Q32.9 -31.0 35.275 -26.9Q37.65 -22.8 37.65 -17.650000000000002Q37.65 -12.5 35.25 -8.375Q32.85 -4.25 28.75 -1.95Q24.650000000000002 0.35000000000000003 19.700000000000003 0.35000000000000003Q14.75 0.35000000000000003 10.625 -1.95Q6.5 -4.25 4.075 -8.375Q1.6500000000000001 -12.5 1.6500000000000001 -17.650000000000002ZM28.950000000000003 -17.650000000000002Q28.950000000000003 -22.3 26.425000000000004 -25.075000000000003Q23.900000000000002 -27.85 19.700000000000003 -27.85Q15.450000000000001 -27.85 12.925 -25.1Q10.4 -22.35 10.4 -17.650000000000002Q10.4 -13.0 12.925 -10.225Q15.450000000000001 -7.45 19.700000000000003 -7.45Q23.900000000000002 -7.45 26.425000000000004 -10.25Q28.950000000000003 -13.05 28.950000000000003 -17.650000000000002Z" fill="#E8E2D4"/></g><g transform="translate(400 400) rotate(25.685) translate(-18.80 -322.00)"><path d="M34.5 0.0H25.950000000000003L11.65 -21.650000000000002V0.0H3.1V-35.1H11.65L25.950000000000003 -13.350000000000001V-35.1H34.5Z" fill="#E8E2D4"/></g><g transform="translate(400 400) rotate(32.549) translate(-14.77 -322.00)"><path d="M28.35 -35.1V-28.25H19.05V0.0H10.5V-28.25H1.2000000000000002V-35.1Z" fill="#E8E2D4"/></g><g transform="translate(400 400) rotate(37.380) translate(-7.38 -322.00)"><path d="M11.65 -35.1V0.0H3.1V-35.1Z" fill="#E8E2D4"/></g><g transform="translate(400 400) rotate(41.989) translate(-13.52 -322.00)"><path d="M11.65 -28.25V-21.150000000000002H23.1V-14.55H11.65V-6.8500000000000005H24.6V0.0H3.1V-35.1H24.6V-28.25Z" fill="#E8E2D4"/></g><g transform="translate(400 400) rotate(48.185) translate(-16.30 -322.00)"><path d="M21.0 0.0 13.700000000000001 -13.25H11.65V0.0H3.1V-35.1H17.45Q21.6 -35.1 24.525000000000002 -33.650000000000006Q27.450000000000003 -32.2 28.900000000000002 -29.675000000000004Q30.35 -27.150000000000002 30.35 -24.05Q30.35 -20.55 28.375 -17.8Q26.400000000000002 -15.05 22.55 -13.9L30.650000000000002 0.0ZM11.65 -19.3H16.95Q19.3 -19.3 20.475 -20.450000000000003Q21.650000000000002 -21.6 21.650000000000002 -23.700000000000003Q21.650000000000002 -25.700000000000003 20.475 -26.85Q19.3 -28.0 16.95 -28.0H11.65Z" fill="#E8E2D4"/></g><g transform="translate(400 400) rotate(37.498) translate(0 330.00) rotate(180) translate(-10.39 0)"><path d="M19.721999999999998 -26.676V-21.47H8.854V-15.846H16.986V-10.792H8.854V0.0H2.356V-26.676Z" fill="#B9E6CD"/></g><g transform="translate(400 400) rotate(33.328) translate(0 330.00) rotate(180) translate(-9.06 0)"><path d="M8.854 -5.016H17.366V0.0H2.356V-26.676H8.854Z" fill="#B9E6CD"/></g><g transform="translate(400 400) rotate(29.990) translate(0 330.00) rotate(180) translate(-5.61 0)"><path d="M8.854 -26.676V0.0H2.356V-26.676Z" fill="#B9E6CD"/></g><g transform="translate(400 400) rotate(25.711) translate(0 330.00) rotate(180) translate(-14.48 0)"><path d="M20.064 -18.24Q19.342 -19.57 17.993 -20.273Q16.644 -20.976 14.82 -20.976Q11.666 -20.976 9.766 -18.905Q7.866 -16.834 7.866 -13.376Q7.866 -9.69 9.861 -7.619Q11.856 -5.548 15.352 -5.548Q17.746 -5.548 19.399 -6.763999999999999Q21.052 -7.9799999999999995 21.812 -10.26H13.565999999999999V-15.048H27.701999999999998V-9.006Q26.98 -6.574 25.250999999999998 -4.484Q23.522 -2.394 20.862 -1.102Q18.201999999999998 0.19 14.857999999999999 0.19Q10.906 0.19 7.809 -1.539Q4.712 -3.268 2.9829999999999997 -6.346Q1.254 -9.424 1.254 -13.376Q1.254 -17.328 2.9829999999999997 -20.424999999999997Q4.712 -23.522 7.79 -25.250999999999998Q10.868 -26.98 14.82 -26.98Q19.608 -26.98 22.895 -24.662Q26.182 -22.344 27.246 -18.24Z" fill="#B9E6CD"/></g><g transform="translate(400 400) rotate(19.994) translate(0 330.00) rotate(180) translate(-13.89 0)"><path d="M25.46 -26.676V0.0H18.962V-10.982H8.854V0.0H2.356V-26.676H8.854V-16.226H18.962V-26.676Z" fill="#B9E6CD"/></g><g transform="translate(400 400) rotate(14.842) translate(0 330.00) rotate(180) translate(-11.23 0)"><path d="M21.546 -26.676V-21.47H14.478V0.0H7.9799999999999995V-21.47H0.9119999999999999V-26.676Z" fill="#B9E6CD"/></g><g transform="translate(400 400) rotate(7.317) translate(0 330.00) rotate(180) translate(-14.93 0)"><path d="M1.254 -13.414Q1.254 -17.328 3.0969999999999995 -20.444Q4.9399999999999995 -23.56 8.075 -25.308Q11.209999999999999 -27.056 14.972 -27.056Q18.733999999999998 -27.056 21.869 -25.308Q25.003999999999998 -23.56 26.808999999999997 -20.444Q28.614 -17.328 28.614 -13.414Q28.614 -9.5 26.79 -6.365Q24.966 -3.23 21.85 -1.482Q18.733999999999998 0.266 14.972 0.266Q11.209999999999999 0.266 8.075 -1.482Q4.9399999999999995 -3.23 3.0969999999999995 -6.365Q1.254 -9.5 1.254 -13.414ZM22.002 -13.414Q22.002 -16.948 20.083 -19.057000000000002Q18.163999999999998 -21.166 14.972 -21.166Q11.741999999999999 -21.166 9.823 -19.076Q7.904 -16.986 7.904 -13.414Q7.904 -9.879999999999999 9.823 -7.770999999999999Q11.741999999999999 -5.662 14.972 -5.662Q18.163999999999998 -5.662 20.083 -7.789999999999999Q22.002 -9.918 22.002 -13.414Z" fill="#B9E6CD"/></g><g transform="translate(400 400) rotate(1.874) translate(0 330.00) rotate(180) translate(-11.86 0)"><path d="M12.882 -9.576H8.854V0.0H2.356V-26.676H12.882Q16.073999999999998 -26.676 18.278 -25.573999999999998Q20.482 -24.471999999999998 21.584 -22.534Q22.686 -20.596 22.686 -18.088Q22.686 -15.77 21.622 -13.850999999999999Q20.558 -11.932 18.354 -10.754000000000001Q16.15 -9.576 12.882 -9.576ZM16.073999999999998 -18.088Q16.073999999999998 -19.684 15.161999999999999 -20.558Q14.25 -21.432 12.388 -21.432H8.854V-14.744H12.388Q14.25 -14.744 15.161999999999999 -15.618Q16.073999999999998 -16.492 16.073999999999998 -18.088Z" fill="#B9E6CD"/></g><g transform="translate(400 400) rotate(-2.761) translate(0 330.00) rotate(180) translate(-10.28 0)"><path d="M8.854 -21.47V-16.073999999999998H17.556V-11.058H8.854V-5.2059999999999995H18.695999999999998V0.0H2.356V-26.676H18.695999999999998V-21.47Z" fill="#B9E6CD"/></g><g transform="translate(400 400) rotate(-7.488) translate(0 330.00) rotate(180) translate(-12.39 0)"><path d="M15.959999999999999 0.0 10.411999999999999 -10.07H8.854V0.0H2.356V-26.676H13.262Q16.416 -26.676 18.639 -25.573999999999998Q20.862 -24.471999999999998 21.964 -22.552999999999997Q23.066 -20.634 23.066 -18.278Q23.066 -15.618 21.564999999999998 -13.527999999999999Q20.064 -11.437999999999999 17.137999999999998 -10.564L23.294 0.0ZM8.854 -14.668H12.882Q14.668 -14.668 15.561 -15.542Q16.454 -16.416 16.454 -18.012Q16.454 -19.532 15.561 -20.406Q14.668 -21.28 12.882 -21.28H8.854Z" fill="#B9E6CD"/></g><g transform="translate(400 400) rotate(-12.862) translate(0 330.00) rotate(180) translate(-14.00 0)"><path d="M18.962 -4.712H9.006L7.41 0.0H0.608L10.26 -26.676H17.784L27.436 0.0H20.558ZM17.29 -9.728 13.984 -19.494 10.716 -9.728Z" fill="#B9E6CD"/></g><g transform="translate(400 400) rotate(-18.035) translate(0 330.00) rotate(180) translate(-11.23 0)"><path d="M21.546 -26.676V-21.47H14.478V0.0H7.9799999999999995V-21.47H0.9119999999999999V-26.676Z" fill="#B9E6CD"/></g><g transform="translate(400 400) rotate(-21.749) translate(0 330.00) rotate(180) translate(-5.61 0)"><path d="M8.854 -26.676V0.0H2.356V-26.676Z" fill="#B9E6CD"/></g><g transform="translate(400 400) rotate(-26.107) translate(0 330.00) rotate(180) translate(-14.93 0)"><path d="M1.254 -13.414Q1.254 -17.328 3.0969999999999995 -20.444Q4.9399999999999995 -23.56 8.075 -25.308Q11.209999999999999 -27.056 14.972 -27.056Q18.733999999999998 -27.056 21.869 -25.308Q25.003999999999998 -23.56 26.808999999999997 -20.444Q28.614 -17.328 28.614 -13.414Q28.614 -9.5 26.79 -6.365Q24.966 -3.23 21.85 -1.482Q18.733999999999998 0.266 14.972 0.266Q11.209999999999999 0.266 8.075 -1.482Q4.9399999999999995 -3.23 3.0969999999999995 -6.365Q1.254 -9.5 1.254 -13.414ZM22.002 -13.414Q22.002 -16.948 20.083 -19.057000000000002Q18.163999999999998 -21.166 14.972 -21.166Q11.741999999999999 -21.166 9.823 -19.076Q7.904 -16.986 7.904 -13.414Q7.904 -9.879999999999999 9.823 -7.770999999999999Q11.741999999999999 -5.662 14.972 -5.662Q18.163999999999998 -5.662 20.083 -7.789999999999999Q22.002 -9.918 22.002 -13.414Z" fill="#B9E6CD"/></g><g transform="translate(400 400) rotate(-31.972) translate(0 330.00) rotate(180) translate(-14.29 0)"><path d="M26.22 0.0H19.721999999999998L8.854 -16.454V0.0H2.356V-26.676H8.854L19.721999999999998 -10.145999999999999V-26.676H26.22Z" fill="#B9E6CD"/></g><g transform="translate(400 400) rotate(-37.274) translate(0 330.00) rotate(180) translate(-11.69 0)"><path d="M1.5959999999999999 -7.9799999999999995H8.512Q8.664 -6.498 9.538 -5.718999999999999Q10.411999999999999 -4.9399999999999995 11.818 -4.9399999999999995Q13.262 -4.9399999999999995 14.097999999999999 -5.6049999999999995Q14.934 -6.27 14.934 -7.4479999999999995Q14.934 -8.436 14.268999999999998 -9.082Q13.604 -9.728 12.635 -10.146Q11.666 -10.564 9.879999999999999 -11.096Q7.295999999999999 -11.894 5.661999999999999 -12.692Q4.028 -13.49 2.8499999999999996 -15.047999999999998Q1.672 -16.605999999999998 1.672 -19.114Q1.672 -22.838 4.37 -24.947000000000003Q7.068 -27.056 11.4 -27.056Q15.808 -27.056 18.506 -24.947000000000003Q21.204 -22.838 21.394 -19.076H14.363999999999999Q14.288 -20.368 13.414 -21.108999999999998Q12.54 -21.849999999999998 11.172 -21.849999999999998Q9.994 -21.849999999999998 9.271999999999998 -21.223Q8.549999999999999 -20.596 8.549999999999999 -19.418Q8.549999999999999 -18.126 9.765999999999998 -17.404Q10.982 -16.682 13.565999999999999 -15.846Q16.15 -14.972 17.765 -14.174Q19.38 -13.376 20.558 -11.856Q21.736 -10.336 21.736 -7.942Q21.736 -5.662 20.576999999999998 -3.8Q19.418 -1.938 17.214 -0.836Q15.01 0.266 12.008 0.266Q9.081999999999999 0.266 6.763999999999999 -0.6839999999999999Q4.446 -1.634 3.0589999999999997 -3.4959999999999996Q1.672 -5.358 1.5959999999999999 -7.9799999999999995Z" fill="#B9E6CD"/></g><path d="M63 388 L75 400 L63 412 L51 400 Z" fill="#F2A24A"/><path d="M737 388 L749 400 L737 412 L725 400 Z" fill="#F2A24A"/></svg>