<svg xmlns="http://www.w3.org/2000/svg" viewBox="0 0 1200 630" width="1200" height="630"><rect width="1200" height="630" fill="#161D3D"/><circle cx="250" cy="315" r="150" fill="none" stroke="#B9E6CD" stroke-width="10"/><g transform="translate(150 195) scale(2.4)"><path d="M28 71 L28 37 L50 59 L72 37 L72 71" fill="none" stroke="#E8E2D4" stroke-width="9.5" stroke-linecap="round" stroke-linejoin="round"/><path d="M50.00 22.50 L51.48 28.52 L57.50 30.00 L51.48 31.48 L50.00 37.50 L48.52 31.48 L42.50 30.00 L48.52 28.52 Z" fill="#F2A24A"/></g><path transform="translate(470.00 300.00)" d="M65.132 -53.352V0.0H52.135999999999996V-31.996L40.204 0.0H29.715999999999998L17.708 -32.072V0.0H4.712V-53.352H20.064L35.036 -16.416L49.856 -53.352Z" fill="#E8E2D4"/><path transform="translate(543.57 300.00)" d="M37.924 -9.424H18.012L14.82 0.0H1.216L20.52 -53.352H35.568L54.872 0.0H41.116ZM34.58 -19.456 27.968 -38.988 21.432 -19.456Z" fill="#E8E2D4"/><path transform="translate(603.38 300.00)" d="M52.668 -26.676Q52.668 -18.848 49.209999999999994 -12.767999999999999Q45.751999999999995 -6.688 39.406 -3.344Q33.06 0.0 24.7 0.0H4.712V-53.352H24.7Q33.135999999999996 -53.352 39.443999999999996 -50.007999999999996Q45.751999999999995 -46.664 49.209999999999994 -40.622Q52.668 -34.58 52.668 -26.676ZM39.443999999999996 -26.676Q39.443999999999996 -34.048 35.339999999999996 -38.152Q31.236 -42.256 23.864 -42.256H17.708V-11.248H23.864Q31.236 -11.248 35.339999999999996 -15.276Q39.443999999999996 -19.304 39.443999999999996 -26.676Z" fill="#E8E2D4"/><path transform="translate(662.43 300.00)" d="M17.708 -42.94V-32.147999999999996H35.112V-22.116H17.708V-10.411999999999999H37.391999999999996V0.0H4.712V-53.352H37.391999999999996V-42.94Z" fill="#E8E2D4"/><path transform="translate(727.26 300.00)" d="M47.272 -14.516Q47.272 -7.827999999999999 42.598 -3.9139999999999997Q37.924 0.0 29.564 0.0H4.712V-53.352H28.727999999999998Q36.86 -53.352 41.458 -49.628Q46.056 -45.903999999999996 46.056 -39.519999999999996Q46.056 -34.808 43.586 -31.692Q41.116 -28.576 37.012 -27.36Q41.647999999999996 -26.372 44.459999999999994 -22.762Q47.272 -19.152 47.272 -14.516ZM17.708 -31.768H26.22Q29.412 -31.768 31.122 -33.174Q32.832 -34.58 32.832 -37.316Q32.832 -40.052 31.122 -41.495999999999995Q29.412 -42.94 26.22 -42.94H17.708ZM34.124 -16.264Q34.124 -19.076 32.262 -20.672Q30.4 -22.268 27.131999999999998 -22.268H17.708V-10.488H27.284Q30.552 -10.488 32.338 -11.969999999999999Q34.124 -13.452 34.124 -16.264Z" fill="#E8E2D4"/><path transform="translate(781.14 300.00)" d="M50.464 -53.352 31.996 -17.631999999999998V0.0H19.0V-17.631999999999998L0.532 -53.352H15.276L25.612 -31.008L35.872 -53.352Z" fill="#E8E2D4"/><path transform="translate(855.85 300.00)" d="M65.132 -53.352V0.0H52.135999999999996V-31.996L40.204 0.0H29.715999999999998L17.708 -32.072V0.0H4.712V-53.352H20.064L35.036 -16.416L49.856 -53.352Z" fill="#E8E2D4"/><path transform="translate(929.42 300.00)" d="M37.924 -9.424H18.012L14.82 0.0H1.216L20.52 -53.352H35.568L54.872 0.0H41.116ZM34.58 -19.456 27.968 -38.988 21.432 -19.456Z" fill="#E8E2D4"/><path transform="translate(989.23 300.00)" d="M43.092 -53.352V-42.94H28.956V0.0H15.959999999999999V-42.94H1.8239999999999998V-53.352Z" fill="#E8E2D4"/><path transform="translate(1037.95 300.00)" d="M43.092 -53.352V-42.94H28.956V0.0H15.959999999999999V-42.94H1.8239999999999998V-53.352Z" fill="#E8E2D4"/><path transform="translate(474.00 366.00)" d="M6.048 -2.944H13.568V0.0H2.4V-22.240000000000002H6.048Z" fill="#B9E6CD"/><path transform="translate(493.33 366.00)" d="M6.048 -19.296V-12.768H13.728V-9.792H6.048V-2.976H14.688V0.0H2.4V-22.272000000000002H14.688V-19.296Z" fill="#B9E6CD"/><path transform="translate(515.22 366.00)" d="M15.808 -4.5440000000000005H6.496L4.896 0.0H1.088L9.056000000000001 -22.272000000000002H13.280000000000001L21.248 0.0H17.408ZM14.784 -7.5200000000000005 11.168000000000001 -17.856 7.5200000000000005 -7.5200000000000005Z" fill="#B9E6CD"/><path transform="translate(542.64 366.00)" d="M13.952 0.0 8.832 -8.896H6.048V0.0H2.4V-22.240000000000002H10.08Q12.64 -22.240000000000002 14.416 -21.344Q16.192 -20.448 17.072000000000003 -18.944000000000003Q17.952 -17.44 17.952 -15.584Q17.952 -13.408 16.688000000000002 -11.632Q15.424 -9.856 12.8 -9.216000000000001L18.304000000000002 0.0ZM6.048 -11.808H10.08Q12.128 -11.808 13.168 -12.832Q14.208 -13.856 14.208 -15.584Q14.208 -17.312 13.184000000000001 -18.288Q12.16 -19.264 10.08 -19.264H6.048Z" fill="#B9E6CD"/><path transform="translate(567.98 366.00)" d="M20.672 0.0H17.024L6.048 -16.608V0.0H2.4V-22.272000000000002H6.048L17.024 -5.696V-22.272000000000002H20.672Z" fill="#B9E6CD"/><path transform="translate(609.62 366.00)" d="M3.2 -10.656Q3.2 -12.416 4.416 -13.632000000000001Q5.632 -14.848 7.36 -14.848Q9.152000000000001 -14.848 10.368 -13.632000000000001Q11.584 -12.416 11.584 -10.656Q11.584 -8.896 10.368 -7.696000000000001Q9.152000000000001 -6.496 7.36 -6.496Q6.208 -6.496 5.264 -7.056000000000001Q4.32 -7.6160000000000005 3.7600000000000002 -8.56Q3.2 -9.504 3.2 -10.656Z" fill="#B9E6CD"/><path transform="translate(642.96 366.00)" d="M18.592 -5.984Q18.592 -4.288 17.712 -2.928Q16.832 -1.568 15.168 -0.784Q13.504 0.0 11.296 0.0H2.4V-22.240000000000002H10.88Q13.152000000000001 -22.240000000000002 14.784 -21.472Q16.416 -20.704 17.248 -19.408Q18.080000000000002 -18.112000000000002 18.080000000000002 -16.512Q18.080000000000002 -14.592 17.056 -13.312000000000001Q16.032 -12.032 14.304 -11.424Q16.096 -11.104000000000001 17.344 -9.536000000000001Q18.592 -7.968 18.592 -5.984ZM6.048 -12.896H10.56Q12.352 -12.896 13.36 -13.712Q14.368 -14.528 14.368 -16.064Q14.368 -17.568 13.36 -18.416Q12.352 -19.264 10.56 -19.264H6.048ZM14.944 -6.368Q14.944 -8.0 13.824000000000002 -8.96Q12.704 -9.92 10.848 -9.92H6.048V-2.976H10.976Q12.832 -2.976 13.888000000000002 -3.872Q14.944 -4.768 14.944 -6.368Z" fill="#B9E6CD"/><path transform="translate(668.24 366.00)" d="M6.016 -22.240000000000002V-8.064Q6.016 -5.5360000000000005 7.344 -4.256Q8.672 -2.976 11.040000000000001 -2.976Q13.44 -2.976 14.768 -4.256Q16.096 -5.5360000000000005 16.096 -8.064V-22.240000000000002H19.744V-8.128Q19.744 -5.408 18.560000000000002 -3.5200000000000005Q17.376 -1.6320000000000001 15.392 -0.7040000000000001Q13.408 0.224 11.008000000000001 0.224Q8.608 0.224 6.640000000000001 -0.7040000000000001Q4.672 -1.6320000000000001 3.5199999999999996 -3.5200000000000005Q2.368 -5.408 2.368 -8.128V-22.240000000000002Z" fill="#B9E6CD"/><path transform="translate(695.44 366.00)" d="M6.048 -22.240000000000002V0.0H2.4V-22.240000000000002Z" fill="#B9E6CD"/><path transform="translate(709.01 366.00)" d="M6.048 -2.944H13.568V0.0H2.4V-22.240000000000002H6.048Z" fill="#B9E6CD"/><path transform="translate(728.34 366.00)" d="M21.472 -11.040000000000001Q21.472 -7.648000000000001 20.016 -5.152Q18.56 -2.656 15.888 -1.328Q13.216000000000001 0.0 9.664 0.0H2.4V-22.240000000000002H9.664Q13.216000000000001 -22.240000000000002 15.888 -20.880000000000003Q18.56 -19.52 20.016 -16.976Q21.472 -14.432 21.472 -11.040000000000001ZM17.728 -11.040000000000001Q17.728 -14.912 15.648 -17.088Q13.568 -19.264 9.664 -19.264H6.048V-2.976H9.664Q13.568 -2.976 15.648 -5.088Q17.728 -7.2 17.728 -11.040000000000001Z" fill="#B9E6CD"/><path transform="translate(769.58 366.00)" d="M3.2 -10.656Q3.2 -12.416 4.416 -13.632000000000001Q5.632 -14.848 7.36 -14.848Q9.152000000000001 -14.848 10.368 -13.632000000000001Q11.584 -12.416 11.584 -10.656Q11.584 -8.896 10.368 -7.696000000000001Q9.152000000000001 -6.496 7.36 -6.496Q6.208 -6.496 5.264 -7.056000000000001Q4.32 -7.6160000000000005 3.7600000000000002 -8.56Q3.2 -9.504 3.2 -10.656Z" fill="#B9E6CD"/><path transform="translate(802.93 366.00)" d="M6.048 -19.296V-12.768H13.728V-9.792H6.048V-2.976H14.688V0.0H2.4V-22.272000000000002H14.688V-19.296Z" fill="#B9E6CD"/><path transform="translate(824.82 366.00)" d="M12.608 -11.104000000000001 19.52 0.0H15.424L10.4 -8.064L5.696 0.0H1.6320000000000001L8.544 -11.104000000000001L1.6 -22.240000000000002H5.696L10.752 -14.112L15.488 -22.240000000000002H19.552Z" fill="#B9E6CD"/><path transform="translate(851.06 366.00)" d="M10.08 -9.024000000000001H6.048V0.0H2.4V-22.240000000000002H10.08Q12.64 -22.240000000000002 14.416 -21.36Q16.192 -20.48 17.072000000000003 -18.976Q17.952 -17.472 17.952 -15.616Q17.952 -13.92 17.152 -12.416Q16.352 -10.912 14.592 -9.968Q12.832 -9.024000000000001 10.08 -9.024000000000001ZM14.208 -15.616Q14.208 -19.264 10.08 -19.264H6.048V-12.0H10.08Q12.16 -12.0 13.184000000000001 -12.943999999999999Q14.208 -13.888 14.208 -15.616Z" fill="#B9E6CD"/><path transform="translate(875.22 366.00)" d="M6.048 -2.944H13.568V0.0H2.4V-22.240000000000002H6.048Z" fill="#B9E6CD"/><path transform="translate(894.54 366.00)" d="M1.184 -11.168000000000001Q1.184 -14.432 2.704 -17.024Q4.224 -19.616 6.832 -21.072Q9.44 -22.528 12.544 -22.528Q15.68 -22.528 18.288 -21.072Q20.896 -19.616 22.4 -17.024Q23.904 -14.432 23.904 -11.168000000000001Q23.904 -7.904 22.4 -5.296Q20.896 -2.688 18.288 -1.232Q15.68 0.224 12.544 0.224Q9.44 0.224 6.832 -1.232Q4.224 -2.688 2.704 -5.296Q1.184 -7.904 1.184 -11.168000000000001ZM20.16 -11.168000000000001Q20.16 -13.632 19.184 -15.488Q18.208000000000002 -17.344 16.48 -18.336Q14.752 -19.328 12.544 -19.328Q10.336 -19.328 8.608 -18.336Q6.88 -17.344 5.904 -15.488Q4.928 -13.632 4.928 -11.168000000000001Q4.928 -8.704 5.904 -6.832000000000001Q6.88 -4.96 8.608 -3.952Q10.336 -2.944 12.544 -2.944Q14.752 -2.944 16.48 -3.952Q18.208000000000002 -4.96 19.184 -6.832000000000001Q20.16 -8.704 20.16 -11.168000000000001Z" fill="#B9E6CD"/><path transform="translate(924.75 366.00)" d="M13.952 0.0 8.832 -8.896H6.048V0.0H2.4V-22.240000000000002H10.08Q12.64 -22.240000000000002 14.416 -21.344Q16.192 -20.448 17.072000000000003 -18.944000000000003Q17.952 -17.44 17.952 -15.584Q17.952 -13.408 16.688000000000002 -11.632Q15.424 -9.856 12.8 -9.216000000000001L18.304000000000002 0.0ZM6.048 -11.808H10.08Q12.128 -11.808 13.168 -12.832Q14.208 -13.856 14.208 -15.584Q14.208 -17.312 13.184000000000001 -18.288Q12.16 -19.264 10.08 -19.264H6.048Z" fill="#B9E6CD"/><path transform="translate(950.10 366.00)" d="M6.048 -19.296V-12.768H13.728V-9.792H6.048V-2.976H14.688V0.0H2.4V-22.272000000000002H14.688V-19.296Z" fill="#B9E6CD"/><path transform="translate(474.00 428.00)" d="M4.1579999999999995 -15.29V0.0H1.65V-15.29Z" fill="#E8E2D4"/><path transform="translate(482.01 428.00)" d="M14.212 0.0H11.703999999999999L4.1579999999999995 -11.418V0.0H1.65V-15.312H4.1579999999999995L11.703999999999999 -3.916V-15.312H14.212Z" fill="#E8E2D4"/><path transform="translate(500.07 428.00)" d="M11.527999999999999 -15.29V-13.244H7.457999999999999V0.0H4.949999999999999V-13.244H0.858V-15.29Z" fill="#E8E2D4"/><path transform="translate(514.68 428.00)" d="M4.1579999999999995 -13.266V-8.777999999999999H9.437999999999999V-6.731999999999999H4.1579999999999995V-2.046H10.097999999999999V0.0H1.65V-15.312H10.097999999999999V-13.266Z" fill="#E8E2D4"/><path transform="translate(528.41 428.00)" d="M9.591999999999999 0.0 6.072 -6.116H4.1579999999999995V0.0H1.65V-15.29H6.93Q8.69 -15.29 9.911 -14.674Q11.132 -14.058 11.736999999999998 -13.024Q12.341999999999999 -11.989999999999998 12.341999999999999 -10.713999999999999Q12.341999999999999 -9.218 11.472999999999999 -7.997Q10.604 -6.776 8.799999999999999 -6.335999999999999L12.584 0.0ZM4.1579999999999995 -8.118H6.93Q8.338 -8.118 9.052999999999999 -8.822Q9.767999999999999 -9.526 9.767999999999999 -10.713999999999999Q9.767999999999999 -11.902 9.064 -12.573Q8.36 -13.244 6.93 -13.244H4.1579999999999995Z" fill="#E8E2D4"/><path transform="translate(544.51 428.00)" d="M10.867999999999999 -3.1239999999999997H4.465999999999999L3.3659999999999997 0.0H0.748L6.226 -15.312H9.129999999999999L14.607999999999999 0.0H11.968ZM10.164 -5.17 7.678 -12.276 5.17 -5.17Z" fill="#E8E2D4"/><path transform="translate(562.04 428.00)" d="M8.623999999999999 -15.488Q11.065999999999999 -15.488 12.969 -14.289Q14.872 -13.09 15.729999999999999 -10.889999999999999H12.716Q12.122 -12.1 11.065999999999999 -12.693999999999999Q10.01 -13.287999999999998 8.623999999999999 -13.287999999999998Q7.106 -13.287999999999998 5.917999999999999 -12.605999999999998Q4.7299999999999995 -11.924 4.058999999999999 -10.648Q3.388 -9.372 3.388 -7.678Q3.388 -5.984 4.058999999999999 -4.708Q4.7299999999999995 -3.432 5.917999999999999 -2.739Q7.106 -2.046 8.623999999999999 -2.046Q10.01 -2.046 11.065999999999999 -2.6399999999999997Q12.122 -3.234 12.716 -4.444H15.729999999999999Q14.872 -2.2439999999999998 12.969 -1.0559999999999998Q11.065999999999999 0.132 8.623999999999999 0.132Q6.468 0.132 4.686 -0.869Q2.904 -1.8699999999999999 1.859 -3.6519999999999997Q0.814 -5.433999999999999 0.814 -7.678Q0.814 -9.921999999999999 1.859 -11.703999999999999Q2.904 -13.485999999999999 4.696999999999999 -14.486999999999998Q6.489999999999999 -15.488 8.623999999999999 -15.488Z" fill="#E8E2D4"/><path transform="translate(581.25 428.00)" d="M11.527999999999999 -15.29V-13.244H7.457999999999999V0.0H4.949999999999999V-13.244H0.858V-15.29Z" fill="#E8E2D4"/><path transform="translate(595.86 428.00)" d="M4.1579999999999995 -15.29V0.0H1.65V-15.29Z" fill="#E8E2D4"/><path transform="translate(603.87 428.00)" d="M14.828 -15.29 9.086 0.0H6.1819999999999995L0.418 -15.29H3.102L7.6339999999999995 -2.574L12.187999999999999 -15.29Z" fill="#E8E2D4"/><path transform="translate(621.33 428.00)" d="M4.1579999999999995 -13.266V-8.777999999999999H9.437999999999999V-6.731999999999999H4.1579999999999995V-2.046H10.097999999999999V0.0H1.65V-15.312H10.097999999999999V-13.266Z" fill="#E8E2D4"/><path transform="translate(642.98 428.00)" d="M4.1579999999999995 -2.024H9.328V0.0H1.65V-15.29H4.1579999999999995Z" fill="#E8E2D4"/><path transform="translate(654.95 428.00)" d="M4.1579999999999995 -13.266V-8.777999999999999H9.437999999999999V-6.731999999999999H4.1579999999999995V-2.046H10.097999999999999V0.0H1.65V-15.312H10.097999999999999V-13.266Z" fill="#E8E2D4"/><path transform="translate(668.68 428.00)" d="M1.276 -4.224H3.96Q4.048 -3.234 4.741 -2.596Q5.433999999999999 -1.958 6.688 -1.958Q7.986 -1.958 8.712 -2.585Q9.437999999999999 -3.2119999999999997 9.437999999999999 -4.202Q9.437999999999999 -4.9719999999999995 8.986999999999998 -5.4559999999999995Q8.536 -5.9399999999999995 7.865 -6.204Q7.194 -6.468 6.005999999999999 -6.776Q4.51 -7.172 3.5749999999999997 -7.579Q2.6399999999999997 -7.986 1.9799999999999998 -8.844Q1.3199999999999998 -9.702 1.3199999999999998 -11.132Q1.3199999999999998 -12.452 1.9799999999999998 -13.442Q2.6399999999999997 -14.431999999999999 3.828 -14.959999999999999Q5.016 -15.488 6.577999999999999 -15.488Q8.799999999999999 -15.488 10.219 -14.376999999999999Q11.638 -13.266 11.792 -11.33H9.02Q8.953999999999999 -12.165999999999999 8.228 -12.759999999999998Q7.502 -13.354 6.314 -13.354Q5.236 -13.354 4.554 -12.803999999999998Q3.872 -12.254 3.872 -11.219999999999999Q3.872 -10.516 4.301 -10.065Q4.7299999999999995 -9.613999999999999 5.39 -9.35Q6.05 -9.086 7.194 -8.777999999999999Q8.712 -8.36 9.669 -7.941999999999999Q10.626 -7.523999999999999 11.297 -6.654999999999999Q11.968 -5.786 11.968 -4.334Q11.968 -3.1679999999999997 11.341 -2.134Q10.713999999999999 -1.0999999999999999 9.514999999999999 -0.4729999999999999Q8.315999999999999 0.154 6.688 0.154Q5.148 0.154 3.9159999999999995 -0.38499999999999995Q2.6839999999999997 -0.9239999999999999 1.98 -1.914Q1.276 -2.904 1.276 -4.224Z" fill="#E8E2D4"/><path transform="translate(684.17 428.00)" d="M1.276 -4.224H3.96Q4.048 -3.234 4.741 -2.596Q5.433999999999999 -1.958 6.688 -1.958Q7.986 -1.958 8.712 -2.585Q9.437999999999999 -3.2119999999999997 9.437999999999999 -4.202Q9.437999999999999 -4.9719999999999995 8.986999999999998 -5.4559999999999995Q8.536 -5.9399999999999995 7.865 -6.204Q7.194 -6.468 6.005999999999999 -6.776Q4.51 -7.172 3.5749999999999997 -7.579Q2.6399999999999997 -7.986 1.9799999999999998 -8.844Q1.3199999999999998 -9.702 1.3199999999999998 -11.132Q1.3199999999999998 -12.452 1.9799999999999998 -13.442Q2.6399999999999997 -14.431999999999999 3.828 -14.959999999999999Q5.016 -15.488 6.577999999999999 -15.488Q8.799999999999999 -15.488 10.219 -14.376999999999999Q11.638 -13.266 11.792 -11.33H9.02Q8.953999999999999 -12.165999999999999 8.228 -12.759999999999998Q7.502 -13.354 6.314 -13.354Q5.236 -13.354 4.554 -12.803999999999998Q3.872 -12.254 3.872 -11.219999999999999Q3.872 -10.516 4.301 -10.065Q4.7299999999999995 -9.613999999999999 5.39 -9.35Q6.05 -9.086 7.194 -8.777999999999999Q8.712 -8.36 9.669 -7.941999999999999Q10.626 -7.523999999999999 11.297 -6.654999999999999Q11.968 -5.786 11.968 -4.334Q11.968 -3.1679999999999997 11.341 -2.134Q10.713999999999999 -1.0999999999999999 9.514999999999999 -0.4729999999999999Q8.315999999999999 0.154 6.688 0.154Q5.148 0.154 3.9159999999999995 -0.38499999999999995Q2.6839999999999997 -0.9239999999999999 1.98 -1.914Q1.276 -2.904 1.276 -4.224Z" fill="#E8E2D4"/><path transform="translate(699.65 428.00)" d="M0.814 -7.678Q0.814 -9.921999999999999 1.859 -11.703999999999999Q2.904 -13.485999999999999 4.696999999999999 -14.486999999999998Q6.489999999999999 -15.488 8.623999999999999 -15.488Q10.78 -15.488 12.573 -14.486999999999998Q14.366 -13.485999999999999 15.399999999999999 -11.703999999999999Q16.433999999999997 -9.921999999999999 16.433999999999997 -7.678Q16.433999999999997 -5.433999999999999 15.399999999999999 -3.6409999999999996Q14.366 -1.8479999999999999 12.573 -0.847Q10.78 0.154 8.623999999999999 0.154Q6.489999999999999 0.154 4.696999999999999 -0.847Q2.904 -1.8479999999999999 1.859 -3.6409999999999996Q0.814 -5.433999999999999 0.814 -7.678ZM13.86 -7.678Q13.86 -9.372 13.189 -10.648Q12.517999999999999 -11.924 11.329999999999998 -12.605999999999998Q10.142 -13.287999999999998 8.623999999999999 -13.287999999999998Q7.106 -13.287999999999998 5.917999999999999 -12.605999999999998Q4.7299999999999995 -11.924 4.058999999999999 -10.648Q3.388 -9.372 3.388 -7.678Q3.388 -5.984 4.058999999999999 -4.697Q4.7299999999999995 -3.4099999999999997 5.917999999999999 -2.7169999999999996Q7.106 -2.024 8.623999999999999 -2.024Q10.142 -2.024 11.329999999999998 -2.7169999999999996Q12.517999999999999 -3.4099999999999997 13.189 -4.697Q13.86 -5.984 13.86 -7.678Z" fill="#E8E2D4"/><path transform="translate(719.10 428.00)" d="M14.212 0.0H11.703999999999999L4.1579999999999995 -11.418V0.0H1.65V-15.312H4.1579999999999995L11.703999999999999 -3.916V-15.312H14.212Z" fill="#E8E2D4"/><path transform="translate(737.16 428.00)" d="M1.276 -4.224H3.96Q4.048 -3.234 4.741 -2.596Q5.433999999999999 -1.958 6.688 -1.958Q7.986 -1.958 8.712 -2.585Q9.437999999999999 -3.2119999999999997 9.437999999999999 -4.202Q9.437999999999999 -4.9719999999999995 8.986999999999998 -5.4559999999999995Q8.536 -5.9399999999999995 7.865 -6.204Q7.194 -6.468 6.005999999999999 -6.776Q4.51 -7.172 3.5749999999999997 -7.579Q2.6399999999999997 -7.986 1.9799999999999998 -8.844Q1.3199999999999998 -9.702 1.3199999999999998 -11.132Q1.3199999999999998 -12.452 1.9799999999999998 -13.442Q2.6399999999999997 -14.431999999999999 3.828 -14.959999999999999Q5.016 -15.488 6.577999999999999 -15.488Q8.799999999999999 -15.488 10.219 -14.376999999999999Q11.638 -13.266 11.792 -11.33H9.02Q8.953999999999999 -12.165999999999999 8.228 -12.759999999999998Q7.502 -13.354 6.314 -13.354Q5.236 -13.354 4.554 -12.803999999999998Q3.872 -12.254 3.872 -11.219999999999999Q3.872 -10.516 4.301 -10.065Q4.7299999999999995 -9.613999999999999 5.39 -9.35Q6.05 -9.086 7.194 -8.777999999999999Q8.712 -8.36 9.669 -7.941999999999999Q10.626 -7.523999999999999 11.297 -6.654999999999999Q11.968 -5.786 11.968 -4.334Q11.968 -3.1679999999999997 11.341 -2.134Q10.713999999999999 -1.0999999999999999 9.514999999999999 -0.4729999999999999Q8.315999999999999 0.154 6.688 0.154Q5.148 0.154 3.9159999999999995 -0.38499999999999995Q2.6839999999999997 -0.9239999999999999 1.98 -1.914Q1.276 -2.904 1.276 -4.224Z" fill="#E8E2D4"/><path transform="translate(760.57 428.00)" d="M2.1999999999999997 -7.326Q2.1999999999999997 -8.536 3.0359999999999996 -9.372Q3.872 -10.208 5.06 -10.208Q6.292 -10.208 7.128 -9.372Q7.9639999999999995 -8.536 7.9639999999999995 -7.326Q7.9639999999999995 -6.116 7.128 -5.2909999999999995Q6.292 -4.465999999999999 5.06 -4.465999999999999Q4.268 -4.465999999999999 3.6189999999999998 -4.850999999999999Q2.9699999999999998 -5.236 2.585 -5.885Q2.1999999999999997 -6.534 2.1999999999999997 -7.326Z" fill="#E8E2D4"/><path transform="translate(780.86 428.00)" d="M1.276 -4.224H3.96Q4.048 -3.234 4.741 -2.596Q5.433999999999999 -1.958 6.688 -1.958Q7.986 -1.958 8.712 -2.585Q9.437999999999999 -3.2119999999999997 9.437999999999999 -4.202Q9.437999999999999 -4.9719999999999995 8.986999999999998 -5.4559999999999995Q8.536 -5.9399999999999995 7.865 -6.204Q7.194 -6.468 6.005999999999999 -6.776Q4.51 -7.172 3.5749999999999997 -7.579Q2.6399999999999997 -7.986 1.9799999999999998 -8.844Q1.3199999999999998 -9.702 1.3199999999999998 -11.132Q1.3199999999999998 -12.452 1.9799999999999998 -13.442Q2.6399999999999997 -14.431999999999999 3.828 -14.959999999999999Q5.016 -15.488 6.577999999999999 -15.488Q8.799999999999999 -15.488 10.219 -14.376999999999999Q11.638 -13.266 11.792 -11.33H9.02Q8.953999999999999 -12.165999999999999 8.228 -12.759999999999998Q7.502 -13.354 6.314 -13.354Q5.236 -13.354 4.554 -12.803999999999998Q3.872 -12.254 3.872 -11.219999999999999Q3.872 -10.516 4.301 -10.065Q4.7299999999999995 -9.613999999999999 5.39 -9.35Q6.05 -9.086 7.194 -8.777999999999999Q8.712 -8.36 9.669 -7.941999999999999Q10.626 -7.523999999999999 11.297 -6.654999999999999Q11.968 -5.786 11.968 -4.334Q11.968 -3.1679999999999997 11.341 -2.134Q10.713999999999999 -1.0999999999999999 9.514999999999999 -0.4729999999999999Q8.315999999999999 0.154 6.688 0.154Q5.148 0.154 3.9159999999999995 -0.38499999999999995Q2.6839999999999997 -0.9239999999999999 1.98 -1.914Q1.276 -2.904 1.276 -4.224Z" fill="#E8E2D4"/><path transform="translate(796.34 428.00)" d="M4.1579999999999995 -15.29V0.0H1.65V-15.29Z" fill="#E8E2D4"/><path transform="translate(804.35 428.00)" d="M17.753999999999998 -15.29V0.0H15.245999999999999V-10.472L10.581999999999999 0.0H8.844L4.1579999999999995 -10.472V0.0H1.65V-15.29H4.356L9.724 -3.3L15.069999999999999 -15.29Z" fill="#E8E2D4"/><path transform="translate(825.96 428.00)" d="M4.136 -15.29V-5.544Q4.136 -3.8059999999999996 5.0489999999999995 -2.9259999999999997Q5.962 -2.046 7.59 -2.046Q9.24 -2.046 10.152999999999999 -2.9259999999999997Q11.065999999999999 -3.8059999999999996 11.065999999999999 -5.544V-15.29H13.574V-5.588Q13.574 -3.718 12.76 -2.42Q11.946 -1.1219999999999999 10.582 -0.48399999999999993Q9.218 0.154 7.568 0.154Q5.917999999999999 0.154 4.5649999999999995 -0.48399999999999993Q3.2119999999999997 -1.1219999999999999 2.42 -2.42Q1.628 -3.718 1.628 -5.588V-15.29Z" fill="#E8E2D4"/><path transform="translate(843.34 428.00)" d="M4.1579999999999995 -2.024H9.328V0.0H1.65V-15.29H4.1579999999999995Z" fill="#E8E2D4"/><path transform="translate(855.30 428.00)" d="M10.867999999999999 -3.1239999999999997H4.465999999999999L3.3659999999999997 0.0H0.748L6.226 -15.312H9.129999999999999L14.607999999999999 0.0H11.968ZM10.164 -5.17 7.678 -12.276 5.17 -5.17Z" fill="#E8E2D4"/><path transform="translate(872.84 428.00)" d="M11.527999999999999 -15.29V-13.244H7.457999999999999V0.0H4.949999999999999V-13.244H0.858V-15.29Z" fill="#E8E2D4"/><path transform="translate(887.45 428.00)" d="M4.1579999999999995 -15.29V0.0H1.65V-15.29Z" fill="#E8E2D4"/><path transform="translate(895.45 428.00)" d="M0.814 -7.678Q0.814 -9.921999999999999 1.859 -11.703999999999999Q2.904 -13.485999999999999 4.696999999999999 -14.486999999999998Q6.489999999999999 -15.488 8.623999999999999 -15.488Q10.78 -15.488 12.573 -14.486999999999998Q14.366 -13.485999999999999 15.399999999999999 -11.703999999999999Q16.433999999999997 -9.921999999999999 16.433999999999997 -7.678Q16.433999999999997 -5.433999999999999 15.399999999999999 -3.6409999999999996Q14.366 -1.8479999999999999 12.573 -0.847Q10.78 0.154 8.623999999999999 0.154Q6.489999999999999 0.154 4.696999999999999 -0.847Q2.904 -1.8479999999999999 1.859 -3.6409999999999996Q0.814 -5.433999999999999 0.814 -7.678ZM13.86 -7.678Q13.86 -9.372 13.189 -10.648Q12.517999999999999 -11.924 11.329999999999998 -12.605999999999998Q10.142 -13.287999999999998 8.623999999999999 -13.287999999999998Q7.106 -13.287999999999998 5.917999999999999 -12.605999999999998Q4.7299999999999995 -11.924 4.058999999999999 -10.648Q3.388 -9.372 3.388 -7.678Q3.388 -5.984 4.058999999999999 -4.697Q4.7299999999999995 -3.4099999999999997 5.917999999999999 -2.7169999999999996Q7.106 -2.024 8.623999999999999 -2.024Q10.142 -2.024 11.329999999999998 -2.7169999999999996Q12.517999999999999 -3.4099999999999997 13.189 -4.697Q13.86 -5.984 13.86 -7.678Z" fill="#E8E2D4"/><path transform="translate(914.90 428.00)" d="M14.212 0.0H11.703999999999999L4.1579999999999995 -11.418V0.0H1.65V-15.312H4.1579999999999995L11.703999999999999 -3.916V-15.312H14.212Z" fill="#E8E2D4"/><path transform="translate(932.96 428.00)" d="M1.276 -4.224H3.96Q4.048 -3.234 4.741 -2.596Q5.433999999999999 -1.958 6.688 -1.958Q7.986 -1.958 8.712 -2.585Q9.437999999999999 -3.2119999999999997 9.437999999999999 -4.202Q9.437999999999999 -4.9719999999999995 8.986999999999998 -5.4559999999999995Q8.536 -5.9399999999999995 7.865 -6.204Q7.194 -6.468 6.005999999999999 -6.776Q4.51 -7.172 3.5749999999999997 -7.579Q2.6399999999999997 -7.986 1.9799999999999998 -8.844Q1.3199999999999998 -9.702 1.3199999999999998 -11.132Q1.3199999999999998 -12.452 1.9799999999999998 -13.442Q2.6399999999999997 -14.431999999999999 3.828 -14.959999999999999Q5.016 -15.488 6.577999999999999 -15.488Q8.799999999999999 -15.488 10.219 -14.376999999999999Q11.638 -13.266 11.792 -11.33H9.02Q8.953999999999999 -12.165999999999999 8.228 -12.759999999999998Q7.502 -13.354 6.314 -13.354Q5.236 -13.354 4.554 -12.803999999999998Q3.872 -12.254 3.872 -11.219999999999999Q3.872 -10.516 4.301 -10.065Q4.7299999999999995 -9.613999999999999 5.39 -9.35Q6.05 -9.086 7.194 -8.777999999999999Q8.712 -8.36 9.669 -7.941999999999999Q10.626 -7.523999999999999 11.297 -6.654999999999999Q11.968 -5.786 11.968 -4.334Q11.968 -3.1679999999999997 11.341 -2.134Q10.713999999999999 -1.0999999999999999 9.514999999999999 -0.4729999999999999Q8.315999999999999 0.154 6.688 0.154Q5.148 0.154 3.9159999999999995 -0.38499999999999995Q2.6839999999999997 -0.9239999999999999 1.98 -1.914Q1.276 -2.904 1.276 -4.224Z" fill="#E8E2D4"/><path transform="translate(956.37 428.00)" d="M2.1999999999999997 -7.326Q2.1999999999999997 -8.536 3.0359999999999996 -9.372Q3.872 -10.208 5.06 -10.208Q6.292 -10.208 7.128 -9.372Q7.9639999999999995 -8.536 7.9639999999999995 -7.326Q7.9639999999999995 -6.116 7.128 -5.2909999999999995Q6.292 -4.465999999999999 5.06 -4.465999999999999Q4.268 -4.465999999999999 3.6189999999999998 -4.850999999999999Q2.9699999999999998 -5.236 2.585 -5.885Q2.1999999999999997 -6.534 2.1999999999999997 -7.326Z" fill="#E8E2D4"/><path transform="translate(976.66 428.00)" d="M12.716 -10.889999999999999Q12.122 -12.033999999999999 11.065999999999999 -12.616999999999999Q10.01 -13.2 8.623999999999999 -13.2Q7.106 -13.2 5.917999999999999 -12.517999999999999Q4.7299999999999995 -11.835999999999999 4.058999999999999 -10.581999999999999Q3.388 -9.328 3.388 -7.678Q3.388 -6.028 4.058999999999999 -4.763Q4.7299999999999995 -3.4979999999999998 5.917999999999999 -2.816Q7.106 -2.134 8.623999999999999 -2.134Q10.67 -2.134 11.946 -3.2779999999999996Q13.222 -4.422 13.508 -6.38H7.765999999999999V-8.382H16.192V-6.4239999999999995Q15.95 -4.6419999999999995 14.927 -3.146Q13.904 -1.65 12.265 -0.7589999999999999Q10.626 0.132 8.623999999999999 0.132Q6.468 0.132 4.686 -0.869Q2.904 -1.8699999999999999 1.859 -3.6519999999999997Q0.814 -5.433999999999999 0.814 -7.678Q0.814 -9.921999999999999 1.859 -11.703999999999999Q2.904 -13.485999999999999 4.696999999999999 -14.486999999999998Q6.489999999999999 -15.488 8.623999999999999 -15.488Q11.065999999999999 -15.488 12.969 -14.289Q14.872 -13.09 15.729999999999999 -10.889999999999999Z" fill="#E8E2D4"/><path transform="translate(995.86 428.00)" d="M10.867999999999999 -3.1239999999999997H4.465999999999999L3.3659999999999997 0.0H0.748L6.226 -15.312H9.129999999999999L14.607999999999999 0.0H11.968ZM10.164 -5.17 7.678 -12.276 5.17 -5.17Z" fill="#E8E2D4"/><path transform="translate(1013.40 428.00)" d="M17.753999999999998 -15.29V0.0H15.245999999999999V-10.472L10.581999999999999 0.0H8.844L4.1579999999999995 -10.472V0.0H1.65V-15.29H4.356L9.724 -3.3L15.069999999999999 -15.29Z" fill="#E8E2D4"/><path transform="translate(1035.00 428.00)" d="M4.1579999999999995 -13.266V-8.777999999999999H9.437999999999999V-6.731999999999999H4.1579999999999995V-2.046H10.097999999999999V0.0H1.65V-15.312H10.097999999999999V-13.266Z" fill="#E8E2D4"/><path transform="translate(1048.73 428.00)" d="M1.276 -4.224H3.96Q4.048 -3.234 4.741 -2.596Q5.433999999999999 -1.958 6.688 -1.958Q7.986 -1.958 8.712 -2.585Q9.437999999999999 -3.2119999999999997 9.437999999999999 -4.202Q9.437999999999999 -4.9719999999999995 8.986999999999998 -5.4559999999999995Q8.536 -5.9399999999999995 7.865 -6.204Q7.194 -6.468 6.005999999999999 -6.776Q4.51 -7.172 3.5749999999999997 -7.579Q2.6399999999999997 -7.986 1.9799999999999998 -8.844Q1.3199999999999998 -9.702 1.3199999999999998 -11.132Q1.3199999999999998 -12.452 1.9799999999999998 -13.442Q2.6399999999999997 -14.431999999999999 3.828 -14.959999999999999Q5.016 -15.488 6.577999999999999 -15.488Q8.799999999999999 -15.488 10.219 -14.376999999999999Q11.638 -13.266 11.792 -11.33H9.02Q8.953999999999999 -12.165999999999999 8.228 -12.759999999999998Q7.502 -13.354 6.314 -13.354Q5.236 -13.354 4.554 -12.803999999999998Q3.872 -12.254 3.872 -11.219999999999999Q3.872 -10.516 4.301 -10.065Q4.7299999999999995 -9.613999999999999 5.39 -9.35Q6.05 -9.086 7.194 -8.777999999999999Q8.712 -8.36 9.669 -7.941999999999999Q10.626 -7.523999999999999 11.297 -6.654999999999999Q11.968 -5.786 11.968 -4.334Q11.968 -3.1679999999999997 11.341 -2.134Q10.713999999999999 -1.0999999999999999 9.514999999999999 -0.4729999999999999Q8.315999999999999 0.154 6.688 0.154Q5.148 0.154 3.9159999999999995 -0.38499999999999995Q2.6839999999999997 -0.9239999999999999 1.98 -1.914Q1.276 -2.904 1.276 -4.224Z" fill="#E8E2D4"/></svg>