<svg xmlns="http://www.w3.org/2000/svg" viewBox="0 0 640 360" role="img" aria-labelledby="t d">
<title id="t">Biopunk Hive — Containment Lab</title><desc id="d">A neon-green containment vat and cryo pod in a dark biopunk laboratory.</desc>
<defs><radialGradient id="bg" cx="50%" cy="35%" r="75%"><stop offset="0" stop-color="#123d22"/><stop offset=".55" stop-color="#06130b"/><stop offset="1" stop-color="#020805"/></radialGradient><linearGradient id="slime" x1="0" y1="0" x2="0" y2="1"><stop stop-color="#35e8ff"/><stop offset=".35" stop-color="#00ff66"/><stop offset="1" stop-color="#063b23"/></linearGradient><filter id="glow"><feGaussianBlur stdDeviation="8" result="b"/><feMerge><feMergeNode in="b"/><feMergeNode in="SourceGraphic"/></feMerge></filter></defs>
<rect width="640" height="360" rx="28" fill="url(#bg)"/><path d="M0 82h640M0 278h640M88 0v360M552 0v360" stroke="#00ff6615" stroke-width="2"/>
<g transform="translate(86 42)"><rect x="0" y="0" width="330" height="272" rx="34" fill="#06140c" stroke="#1b5b35" stroke-width="4"/><path d="M34 70h262M24 152h282M34 234h262" stroke="#35e8ff33" stroke-width="8"/><path d="M52 54c12-32 214-34 226 0l18 163c4 35-28 45-131 45S30 252 34 217Z" fill="#031008" stroke="#00ff6688" stroke-width="6"/><path d="M42 150c38-24 63 20 101-4 39-25 72 22 111-5 18-13 30-4 40 5l2 71c4 35-28 45-131 45S30 252 34 217Z" fill="url(#slime)" filter="url(#glow)"/><circle cx="96" cy="189" r="24" fill="#00ff66"/><circle cx="184" cy="203" r="36" fill="#b026ff"/><circle cx="246" cy="171" r="18" fill="#35e8ff"/><text x="165" y="113" text-anchor="middle" fill="#e8ffe9" font-family="monospace" font-size="27" font-weight="900">HARVEST</text></g>
<g transform="translate(453 51)"><rect x="0" y="0" width="112" height="250" rx="50" fill="#06130d" stroke="#35e8ff" stroke-width="5"/><clipPath id="p"><rect x="14" y="14" width="84" height="218" rx="40"/></clipPath><g clip-path="url(#p)"><rect x="14" y="83" width="84" height="149" fill="url(#slime)" filter="url(#glow)"/><circle cx="44" cy="169" r="8" fill="#dfffea"/><circle cx="75" cy="131" r="5" fill="#dfffea"/><circle cx="56" cy="211" r="6" fill="#dfffea"/></g><path d="M-8 64h128M-12 126h136M-8 188h128" stroke="#b026ff88" stroke-width="8"/><path d="M34 20c-13 53-12 137 0 204" fill="none" stroke="#fff8" stroke-width="5" stroke-linecap="round"/></g>
<text x="320" y="336" text-anchor="middle" fill="#00ff66" font-family="monospace" font-size="24" font-weight="900" letter-spacing="4">BIOPUNK HIVE</text>
</svg>
